<?xml version="1.0" encoding="UTF-8"?>
<svg width="65px" height="72px" viewBox="0 0 65 72" version="1.1" xmlns="http://www.w3.org/2000/svg" xmlns:xlink="http://www.w3.org/1999/xlink">
    <!-- Generator: Sketch 43.1 (39012) - http://www.bohemiancoding.com/sketch -->
    <title>Shape</title>
    <desc>Created with Sketch.</desc>
    <defs></defs>
    <g id="Page-1" stroke="none" stroke-width="1" fill="none" fill-rule="evenodd">
        <g id="Icons" transform="translate(-340.000000, -4.000000)" stroke="#011627" fill-rule="nonzero">
            <path d="M399.624191,47.816822 L399.624191,33.0162669 C402.380886,32.0212982 404.35424,29.3901586 404.35424,26.288383 C404.35424,22.3321977 401.14902,19.1285563 397.194414,19.1285563 C395.523498,19.1285563 393.987614,19.7065857 392.769172,20.6675992 L379.352097,13.107416 C379.393159,12.7962909 379.421587,12.4820071 379.421587,12.1598267 C379.421587,8.20364145 376.216366,5 372.26176,5 C368.311103,5 365.101934,8.20443111 365.101934,12.1598267 C365.101934,12.5246486 365.138258,12.8807842 365.190375,13.2306026 L352.331589,20.476502 C351.156578,19.6315683 349.718611,19.1285563 348.159827,19.1285563 C344.209169,19.1285563 341,22.3321977 341,26.288383 C341,29.1619475 342.696974,31.6312073 345.137807,32.7706834 L345.137807,48.0608262 C342.696974,49.201092 341,51.6711414 341,54.5447059 C341,58.5008912 344.209169,61.7029533 348.159827,61.7029533 C350.04474,61.7029533 351.753559,60.9693613 353.032015,59.7801367 L365.209327,66.6414728 C365.143785,67.0323534 365.101144,67.4311306 365.101144,67.8417526 C365.101144,71.7979379 368.310313,75 372.260971,75 C376.216366,75 379.420797,71.7971482 379.420797,67.8417526 C379.420797,67.4745617 379.384473,67.1176364 379.331566,66.7662387 L392.099542,59.5716671 C393.398529,60.8864472 395.201318,61.7029533 397.193624,61.7029533 C401.14902,61.7029533 404.353451,58.5001015 404.353451,54.5447059 C404.35424,51.4445096 402.380886,48.8125804 399.624191,47.816822 Z M367.508021,62.499718 L355.23595,55.5846852 C355.284909,55.2443427 355.319653,54.8992622 355.319653,54.5454956 C355.319653,51.1831329 352.999639,48.3711617 349.874963,47.6004557 L349.874963,33.2318435 C351.018388,32.9507254 352.05126,32.3963856 352.90488,31.6398935 L365.659432,39.148749 C365.59547,39.5341019 365.553618,39.9273515 365.553618,40.3316563 C365.553618,43.4776527 367.586986,46.1411682 370.406065,47.1021817 L370.406065,60.9346163 C369.315547,61.2275794 368.328475,61.7692846 367.508021,62.499718 Z M377.280035,34.8158969 C376.041062,33.7893419 374.449902,33.1718295 372.715024,33.1718295 C370.883808,33.1718295 369.21684,33.8659387 367.950229,34.9990975 L355.210681,27.4989283 C355.277802,27.1048891 355.320443,26.7021637 355.320443,26.288383 C355.320443,25.6266498 355.223315,24.9886064 355.055908,24.3797802 L367.414051,17.4165783 C368.690138,18.593958 370.390271,19.3188638 372.26255,19.3188638 C374.180629,19.3188638 375.918665,18.561582 377.203438,17.3344539 L390.225684,24.6719536 C390.105656,25.1923381 390.035377,25.7316743 390.035377,26.2891727 C390.035377,26.5268596 390.048801,26.761388 390.070911,26.9927577 L377.280035,34.8158969 Z M377.1071,62.582632 C376.53144,62.0511924 375.871286,61.6121427 375.144801,61.2915416 L375.144801,47.0587505 C377.901496,46.0629921 379.874851,43.4326422 379.874851,40.3308666 C379.874851,39.8310132 379.823523,39.3437944 379.725605,38.8723687 L392.093225,31.3066579 C392.8663,32.0923674 393.820996,32.6948762 394.886244,33.0589085 L394.886244,47.7718115 C392.067956,48.7336146 390.033797,51.3987095 390.033797,54.5439163 C390.033797,54.7910791 390.046432,55.0350834 390.070911,55.275929 L377.1071,62.582632 Z" id="Shape"></path>
        </g>
    </g>
</svg>