<?xml version="1.0" encoding="UTF-8"?>
<svg width="68px" height="71px" viewBox="0 0 68 71" version="1.1" xmlns="http://www.w3.org/2000/svg" xmlns:xlink="http://www.w3.org/1999/xlink">
    <!-- Generator: Sketch 43.1 (39012) - http://www.bohemiancoding.com/sketch -->
    <title>Group</title>
    <desc>Created with Sketch.</desc>
    <defs></defs>
    <g id="Page-1" stroke="none" stroke-width="1" fill="none" fill-rule="evenodd">
        <g id="Icons" transform="translate(-74.000000, -4.000000)" stroke="#011627" fill-rule="nonzero">
            <g id="Group" transform="translate(75.000000, 5.000000)">
                <path d="M33.3333333,37.0833333 C43.4166667,37.0833333 51.6666667,28.8333333 51.6666667,18.75 C51.6666667,8.66666667 43.4166667,0.416666667 33.3333333,0.416666667 C23.25,0.416666667 15,8.66666667 15,18.75 C15,28.8333333 23.25,37.0833333 33.3333333,37.0833333 Z" id="Shape"></path>
                <path d="M48.25,37.3333333 C47.8333333,37.25 47.4166667,37.4166667 47.0833333,37.6666667 C43,40.5833333 38.3333333,42.0833333 33.3333333,42.0833333 C28.3333333,42.0833333 23.5833333,40.5833333 19.5833333,37.5833333 C19.25,37.3333333 18.8333333,37.25 18.3333333,37.25 C11.5833333,38.1666667 5.83333333,42 2.25,47.3333333 C1.5,48.4166667 0.916666667,49.5833333 0.333333333,50.75 C1,51.9166667 1.83333333,53.0833333 2.58333333,54.0833333 C3.75,55.6666667 5,57.0833333 6.41666667,58.4166667 C7.66666667,59.5833333 8.91666667,60.75 10.3333333,61.75 C16.75,66.5 24.6666667,69.3333333 33.1666667,69.3333333 C41.75,69.3333333 49.6666667,66.5 56,61.75 C57.3333333,60.75 58.6666667,59.5833333 59.9166667,58.4166667 C61.3333333,57.0833333 62.5833333,55.5833333 63.75,54.0833333 C64.5833333,53 65.3333333,51.9166667 66,50.75 C65.5,49.5833333 64.8333333,48.4166667 64.0833333,47.3333333 C60.75,42.0833333 55,38.25 48.25,37.3333333 Z" id="Shape"></path>
            </g>
        </g>
    </g>
</svg>